<?xml version="1.0" standalone="no"?><!DOCTYPE svg PUBLIC "-//W3C//DTD SVG 1.1//EN" "http://www.w3.org/Graphics/SVG/1.1/DTD/svg11.dtd"><svg t="1611467353269" class="icon" viewBox="0 0 1024 1024" version="1.1" xmlns="http://www.w3.org/2000/svg" p-id="3531" xmlns:xlink="http://www.w3.org/1999/xlink" width="200" height="200"><defs><style type="text/css"></style></defs><path d="M512 0C229.2352 0 0 229.2352 0 512s229.2352 512 512 512 512-229.2352 512-512C1023.6672 229.3632 794.6368 0.3328 512 0z m0 938.7136C276.3392 938.7136 85.2864 747.6608 85.2864 512S276.3392 85.2864 512 85.2864 938.7136 276.3392 938.7136 512C938.4448 747.52 747.52 938.4448 512 938.7136z" fill="#4D4D4D" p-id="3532"></path><path d="M713.152 618.6624l-177.0112-99.84V246.464a42.6752 42.6752 0 0 0-85.3504 0v291.4432c0 15.488 19.6864 28.4032 32.3968 35.5072a65.3952 65.3952 0 0 0 19.2 13.5296l175.8464 104.0256a38.6304 38.6304 0 0 0 52.9792-13.2736c0.3968-0.6656 0.7808-1.28 1.1264-2.0224a42.5472 42.5472 0 0 0-19.6096-56.7424z" fill="#4D4D4D" p-id="3533"></path></svg>